<?xml version="1.0" encoding="UTF-8" standalone="no"?>
<!-- Created with Inkscape (http://www.inkscape.org/) -->

<svg
   xmlns:dc="http://purl.org/dc/elements/1.1/"
   xmlns:cc="http://creativecommons.org/ns#"
   xmlns:rdf="http://www.w3.org/1999/02/22-rdf-syntax-ns#"
   xmlns:svg="http://www.w3.org/2000/svg"
   xmlns="http://www.w3.org/2000/svg"
   xmlns:sodipodi="http://sodipodi.sourceforge.net/DTD/sodipodi-0.dtd"
   xmlns:inkscape="http://www.inkscape.org/namespaces/inkscape"
   width="158.0213mm"
   height="93.42569mm"
   viewBox="0 0 158.0213 93.42569"
   version="1.1"
   id="svg6425"
   inkscape:version="0.92.4 (5da689c313, 2019-01-14)"
   sodipodi:docname="ln(1-cdf)poisson_arr.svg">
  <defs
     id="defs6419">
    <clipPath
       id="clipPath5233"
       clipPathUnits="userSpaceOnUse">
      <path
         style="clip-rule:evenodd"
         inkscape:connector-curvature="0"
         id="path5231"
         d="M 72,512.16 H 486.84 V 769.92 H 72 Z" />
    </clipPath>
    <clipPath
       id="clipPath5245"
       clipPathUnits="userSpaceOnUse">
      <path
         style="clip-rule:evenodd"
         inkscape:connector-curvature="0"
         id="path5243"
         d="M 72,512.16 H 486.84 V 769.92 H 72 Z" />
    </clipPath>
    <clipPath
       id="clipPath5257"
       clipPathUnits="userSpaceOnUse">
      <path
         style="clip-rule:evenodd"
         inkscape:connector-curvature="0"
         id="path5255"
         d="M 72,512.16 H 486.84 V 769.92 H 72 Z" />
    </clipPath>
    <clipPath
       id="clipPath5269"
       clipPathUnits="userSpaceOnUse">
      <path
         style="clip-rule:evenodd"
         inkscape:connector-curvature="0"
         id="path5267"
         d="M 72,512.16 H 486.84 V 769.92 H 72 Z" />
    </clipPath>
    <clipPath
       id="clipPath5281"
       clipPathUnits="userSpaceOnUse">
      <path
         style="clip-rule:evenodd"
         inkscape:connector-curvature="0"
         id="path5279"
         d="M 72,512.16 H 486.84 V 769.92 H 72 Z" />
    </clipPath>
    <clipPath
       id="clipPath5293"
       clipPathUnits="userSpaceOnUse">
      <path
         style="clip-rule:evenodd"
         inkscape:connector-curvature="0"
         id="path5291"
         d="M 72,512.16 H 486.84 V 769.92 H 72 Z" />
    </clipPath>
    <clipPath
       id="clipPath5305"
       clipPathUnits="userSpaceOnUse">
      <path
         style="clip-rule:evenodd"
         inkscape:connector-curvature="0"
         id="path5303"
         d="M 72,512.16 H 486.84 V 769.92 H 72 Z" />
    </clipPath>
    <clipPath
       id="clipPath5317"
       clipPathUnits="userSpaceOnUse">
      <path
         style="clip-rule:evenodd"
         inkscape:connector-curvature="0"
         id="path5315"
         d="M 72,512.16 H 486.84 V 769.92 H 72 Z" />
    </clipPath>
    <clipPath
       id="clipPath5329"
       clipPathUnits="userSpaceOnUse">
      <path
         style="clip-rule:evenodd"
         inkscape:connector-curvature="0"
         id="path5327"
         d="M 72,512.16 H 486.84 V 769.92 H 72 Z" />
    </clipPath>
    <clipPath
       id="clipPath5341"
       clipPathUnits="userSpaceOnUse">
      <path
         style="clip-rule:evenodd"
         inkscape:connector-curvature="0"
         id="path5339"
         d="M 72,512.16 H 486.84 V 769.92 H 72 Z" />
    </clipPath>
    <clipPath
       id="clipPath5353"
       clipPathUnits="userSpaceOnUse">
      <path
         style="clip-rule:evenodd"
         inkscape:connector-curvature="0"
         id="path5351"
         d="M 72,512.16 H 486.84 V 769.92 H 72 Z" />
    </clipPath>
    <clipPath
       id="clipPath5365"
       clipPathUnits="userSpaceOnUse">
      <path
         style="clip-rule:evenodd"
         inkscape:connector-curvature="0"
         id="path5363"
         d="M 72,512.16 H 486.84 V 769.92 H 72 Z" />
    </clipPath>
    <clipPath
       id="clipPath5377"
       clipPathUnits="userSpaceOnUse">
      <path
         style="clip-rule:evenodd"
         inkscape:connector-curvature="0"
         id="path5375"
         d="M 72,512.16 H 486.84 V 769.92 H 72 Z" />
    </clipPath>
    <clipPath
       id="clipPath5389"
       clipPathUnits="userSpaceOnUse">
      <path
         style="clip-rule:evenodd"
         inkscape:connector-curvature="0"
         id="path5387"
         d="M 72,512.16 H 486.84 V 769.92 H 72 Z" />
    </clipPath>
    <clipPath
       id="clipPath5401"
       clipPathUnits="userSpaceOnUse">
      <path
         style="clip-rule:evenodd"
         inkscape:connector-curvature="0"
         id="path5399"
         d="M 72,512.16 H 486.84 V 769.92 H 72 Z" />
    </clipPath>
    <clipPath
       id="clipPath5413"
       clipPathUnits="userSpaceOnUse">
      <path
         style="clip-rule:evenodd"
         inkscape:connector-curvature="0"
         id="path5411"
         d="M 72,512.16 H 486.84 V 769.92 H 72 Z" />
    </clipPath>
    <clipPath
       id="clipPath5425"
       clipPathUnits="userSpaceOnUse">
      <path
         style="clip-rule:evenodd"
         inkscape:connector-curvature="0"
         id="path5423"
         d="M 72,512.16 H 486.84 V 769.92 H 72 Z" />
    </clipPath>
    <clipPath
       id="clipPath5437"
       clipPathUnits="userSpaceOnUse">
      <path
         style="clip-rule:evenodd"
         inkscape:connector-curvature="0"
         id="path5435"
         d="M 72,512.16 H 486.84 V 769.92 H 72 Z" />
    </clipPath>
    <clipPath
       id="clipPath5449"
       clipPathUnits="userSpaceOnUse">
      <path
         style="clip-rule:evenodd"
         inkscape:connector-curvature="0"
         id="path5447"
         d="M 72,512.16 H 486.84 V 769.92 H 72 Z" />
    </clipPath>
    <clipPath
       id="clipPath5461"
       clipPathUnits="userSpaceOnUse">
      <path
         style="clip-rule:evenodd"
         inkscape:connector-curvature="0"
         id="path5459"
         d="M 72,512.16 H 486.84 V 769.92 H 72 Z" />
    </clipPath>
    <clipPath
       id="clipPath5473"
       clipPathUnits="userSpaceOnUse">
      <path
         style="clip-rule:evenodd"
         inkscape:connector-curvature="0"
         id="path5471"
         d="M 72,512.16 H 486.84 V 769.92 H 72 Z" />
    </clipPath>
    <clipPath
       id="clipPath5485"
       clipPathUnits="userSpaceOnUse">
      <path
         style="clip-rule:evenodd"
         inkscape:connector-curvature="0"
         id="path5483"
         d="M 72,512.16 H 486.84 V 769.92 H 72 Z" />
    </clipPath>
    <clipPath
       id="clipPath5497"
       clipPathUnits="userSpaceOnUse">
      <path
         style="clip-rule:evenodd"
         inkscape:connector-curvature="0"
         id="path5495"
         d="M 72,512.16 H 486.84 V 769.92 H 72 Z" />
    </clipPath>
    <clipPath
       id="clipPath5509"
       clipPathUnits="userSpaceOnUse">
      <path
         style="clip-rule:evenodd"
         inkscape:connector-curvature="0"
         id="path5507"
         d="M 8.871e-6,144.84 H 595.32001 V 769.92 H 8.871e-6 Z" />
    </clipPath>
  </defs>
  <sodipodi:namedview
     id="base"
     pagecolor="#ffffff"
     bordercolor="#666666"
     borderopacity="1.0"
     inkscape:pageopacity="0.0"
     inkscape:pageshadow="2"
     inkscape:zoom="0.7"
     inkscape:cx="78.397611"
     inkscape:cy="-37.882252"
     inkscape:document-units="mm"
     inkscape:current-layer="layer1"
     showgrid="false"
     inkscape:window-width="1920"
     inkscape:window-height="986"
     inkscape:window-x="-11"
     inkscape:window-y="-11"
     inkscape:window-maximized="1" />
  <metadata
     id="metadata6422">
    <rdf:RDF>
      <cc:Work
         rdf:about="">
        <dc:format>image/svg+xml</dc:format>
        <dc:type
           rdf:resource="http://purl.org/dc/dcmitype/StillImage" />
        <dc:title></dc:title>
      </cc:Work>
    </rdf:RDF>
  </metadata>
  <g
     inkscape:label="Layer 1"
     inkscape:groupmode="layer"
     id="layer1"
     transform="translate(-22.28697,-17.075852)">
    <g
       transform="matrix(0.38016651,0,0,-0.3618252,-4.9494158,295.65231)"
       style="stroke-width:0.95118481"
       id="g6417">
      <path
         d="M 72,512.07 H 486.95 V 769.92 H 72 Z"
         style="fill:#ffffff;fill-opacity:1;fill-rule:evenodd;stroke:none;stroke-width:0.95118481"
         id="path5165"
         inkscape:connector-curvature="0" />
      <path
         d="m 124.58,552.6 h 348.89 m -348.89,5.52 h 348.89 m -348.89,5.52 h 348.89 m -348.89,5.4 h 348.89 m -348.89,11.04 h 348.89 m -348.89,5.4 H 473.47 M 124.58,591 h 348.89 m -348.89,5.52 h 348.89 m -348.89,10.92 h 348.89 m -348.89,5.52 h 348.89 m -348.89,5.4 h 348.89 m -348.89,5.52 H 473.47 M 124.58,634.8 h 348.89 m -348.89,5.52 h 348.89 m -348.89,5.4 h 348.89 m -348.89,5.52 h 348.89 m -348.89,10.92 h 348.89 m -348.89,5.52 h 348.89 m -348.89,5.52 h 348.89 m -348.89,5.4 h 348.89 m -348.89,11.04 h 348.89 m -348.89,5.4 h 348.89 m -348.89,5.52 h 348.89 m -348.89,5.4 H 473.47 M 124.58,717 h 348.89 m -348.89,5.4 h 348.89 m -348.89,5.52 h 348.89 m -348.89,5.52 h 348.89"
         style="fill:none;stroke:#f2f2f2;stroke-width:0.71338862;stroke-linecap:butt;stroke-linejoin:round;stroke-miterlimit:10;stroke-dasharray:none;stroke-opacity:1"
         id="path5167"
         inkscape:connector-curvature="0" />
      <path
         d="m 124.58,574.56 h 348.89 m -348.89,27.36 h 348.89 m -348.89,27.36 h 348.89 m -348.89,27.48 h 348.89 m -348.89,27.36 h 348.89 m -348.89,27.36 h 348.89 m -348.89,27.4 h 348.89"
         style="fill:none;stroke:#d9d9d9;stroke-width:0.71338862;stroke-linecap:butt;stroke-linejoin:round;stroke-miterlimit:10;stroke-dasharray:none;stroke-opacity:1"
         id="path5169"
         inkscape:connector-curvature="0" />
      <path
         d="M 136.2,738.88 V 547.17 m 11.64,191.71 V 547.17 m 11.64,191.71 V 547.17 m 11.64,191.71 V 547.17 M 194.4,738.88 V 547.17 m 11.64,191.71 V 547.17 m 11.52,191.71 V 547.17 M 229.2,738.88 V 547.17 m 23.28,191.71 V 547.17 m 11.64,191.71 V 547.17 m 11.64,191.71 V 547.17 M 287.4,738.88 V 547.17 m 23.28,191.71 V 547.17 m 11.64,191.71 V 547.17 m 11.64,191.71 V 547.17 M 345.6,738.88 V 547.17 m 23.16,191.71 V 547.17 M 380.4,738.88 V 547.17 m 11.64,191.71 V 547.17 m 11.64,191.71 V 547.17 m 23.28,191.71 V 547.17 M 438.6,738.88 V 547.17 m 11.64,191.71 V 547.17 m 11.64,191.71 V 547.17"
         style="fill:none;stroke:#f2f2f2;stroke-width:0.71338862;stroke-linecap:butt;stroke-linejoin:round;stroke-miterlimit:10;stroke-dasharray:none;stroke-opacity:1"
         id="path5171"
         inkscape:connector-curvature="0" />
      <path
         d="M 182.76,738.88 V 547.17 m 58.08,191.71 V 547.17 m 58.2,191.71 V 547.17 m 58.08,191.71 V 547.17 m 58.2,191.71 V 547.17 m 58.15,191.71 V 547.17"
         style="fill:none;stroke:#d9d9d9;stroke-width:0.71338862;stroke-linecap:butt;stroke-linejoin:round;stroke-miterlimit:10;stroke-dasharray:none;stroke-opacity:1"
         id="path5173"
         inkscape:connector-curvature="0" />
      <path
         d="M 124.58,547.17 V 738.88"
         style="fill:none;stroke:#bfbfbf;stroke-width:0.71338862;stroke-linecap:butt;stroke-linejoin:round;stroke-miterlimit:10;stroke-dasharray:none;stroke-opacity:1"
         id="path5175"
         inkscape:connector-curvature="0" />
      <path
         d="m 121.72,547.17 h 2.86 m -2.86,27.39 h 2.86 m -2.86,27.36 h 2.86 m -2.86,27.36 h 2.86 m -2.86,27.48 h 2.86 m -2.86,27.36 h 2.86 m -2.86,27.36 h 2.86 m -2.86,27.4 h 2.86"
         style="fill:none;stroke:#bfbfbf;stroke-width:0.71338862;stroke-linecap:butt;stroke-linejoin:round;stroke-miterlimit:10;stroke-dasharray:none;stroke-opacity:1"
         id="path5177"
         inkscape:connector-curvature="0" />
      <path
         d="M 124.58,547.17 H 473.47"
         style="fill:none;stroke:#bfbfbf;stroke-width:0.71338862;stroke-linecap:butt;stroke-linejoin:round;stroke-miterlimit:10;stroke-dasharray:none;stroke-opacity:1"
         id="path5179"
         inkscape:connector-curvature="0" />
      <path
         d="m 124.58,547.17 v -2.86 m 58.18,2.86 v -2.86 m 58.08,2.86 v -2.86 m 58.2,2.86 v -2.86 m 58.08,2.86 v -2.86 m 58.2,2.86 v -2.86 m 58.15,2.86 v -2.86"
         style="fill:none;stroke:#bfbfbf;stroke-width:0.71338862;stroke-linecap:butt;stroke-linejoin:round;stroke-miterlimit:10;stroke-dasharray:none;stroke-opacity:1"
         id="path5181"
         inkscape:connector-curvature="0" />
      <path
         d="m 156.12,560.52 c 0,-1.39 -1.13,-2.52 -2.52,-2.52 -1.39,0 -2.52,1.13 -2.52,2.52 0,1.39 1.13,2.52 2.52,2.52 1.39,0 2.52,-1.13 2.52,-2.52 z"
         style="fill:#5b9bd5;fill-opacity:1;fill-rule:nonzero;stroke:none;stroke-width:0.95118481"
         id="path5183"
         inkscape:connector-curvature="0" />
      <path
         d="m 156.12,560.52 c 0,-1.39 -1.13,-2.52 -2.52,-2.52 -1.39,0 -2.52,1.13 -2.52,2.52 0,1.39 1.13,2.52 2.52,2.52 1.39,0 2.52,-1.13 2.52,-2.52 z"
         style="fill:none;stroke:#5b9bd5;stroke-width:0.68485308;stroke-linecap:butt;stroke-linejoin:round;stroke-miterlimit:10;stroke-dasharray:none;stroke-opacity:1"
         id="path5185"
         inkscape:connector-curvature="0" />
      <path
         d="m 185.28,574.2 c 0,-1.39 -1.13,-2.52 -2.52,-2.52 -1.39,0 -2.52,1.13 -2.52,2.52 0,1.39 1.13,2.52 2.52,2.52 1.39,0 2.52,-1.13 2.52,-2.52 z"
         style="fill:#5b9bd5;fill-opacity:1;fill-rule:nonzero;stroke:none;stroke-width:0.95118481"
         id="path5187"
         inkscape:connector-curvature="0" />
      <path
         d="m 185.28,574.2 c 0,-1.39 -1.13,-2.52 -2.52,-2.52 -1.39,0 -2.52,1.13 -2.52,2.52 0,1.39 1.13,2.52 2.52,2.52 1.39,0 2.52,-1.13 2.52,-2.52 z"
         style="fill:none;stroke:#5b9bd5;stroke-width:0.68485308;stroke-linecap:butt;stroke-linejoin:round;stroke-miterlimit:10;stroke-dasharray:none;stroke-opacity:1"
         id="path5189"
         inkscape:connector-curvature="0" />
      <path
         d="m 214.32,587.16 c 0,-1.39 -1.13,-2.52 -2.52,-2.52 -1.39,0 -2.52,1.13 -2.52,2.52 0,1.39 1.13,2.52 2.52,2.52 1.39,0 2.52,-1.13 2.52,-2.52 z"
         style="fill:#5b9bd5;fill-opacity:1;fill-rule:nonzero;stroke:none;stroke-width:0.95118481"
         id="path5191"
         inkscape:connector-curvature="0" />
      <path
         d="m 214.32,587.16 c 0,-1.39 -1.13,-2.52 -2.52,-2.52 -1.39,0 -2.52,1.13 -2.52,2.52 0,1.39 1.13,2.52 2.52,2.52 1.39,0 2.52,-1.13 2.52,-2.52 z"
         style="fill:none;stroke:#5b9bd5;stroke-width:0.68485308;stroke-linecap:butt;stroke-linejoin:round;stroke-miterlimit:10;stroke-dasharray:none;stroke-opacity:1"
         id="path5193"
         inkscape:connector-curvature="0" />
      <path
         d="m 243.36,604.8 c 0,-1.39 -1.13,-2.52 -2.52,-2.52 -1.39,0 -2.52,1.13 -2.52,2.52 0,1.39 1.13,2.52 2.52,2.52 1.39,0 2.52,-1.13 2.52,-2.52 z"
         style="fill:#5b9bd5;fill-opacity:1;fill-rule:nonzero;stroke:none;stroke-width:0.95118481"
         id="path5195"
         inkscape:connector-curvature="0" />
      <path
         d="m 243.36,604.8 c 0,-1.39 -1.13,-2.52 -2.52,-2.52 -1.39,0 -2.52,1.13 -2.52,2.52 0,1.39 1.13,2.52 2.52,2.52 1.39,0 2.52,-1.13 2.52,-2.52 z"
         style="fill:none;stroke:#5b9bd5;stroke-width:0.68485308;stroke-linecap:butt;stroke-linejoin:round;stroke-miterlimit:10;stroke-dasharray:none;stroke-opacity:1"
         id="path5197"
         inkscape:connector-curvature="0" />
      <path
         d="m 272.52,615.72 c 0,-1.39 -1.13,-2.52 -2.52,-2.52 -1.39,0 -2.52,1.13 -2.52,2.52 0,1.39 1.13,2.52 2.52,2.52 1.39,0 2.52,-1.13 2.52,-2.52 z"
         style="fill:#5b9bd5;fill-opacity:1;fill-rule:nonzero;stroke:none;stroke-width:0.95118481"
         id="path5199"
         inkscape:connector-curvature="0" />
      <path
         d="m 272.52,615.72 c 0,-1.39 -1.13,-2.52 -2.52,-2.52 -1.39,0 -2.52,1.13 -2.52,2.52 0,1.39 1.13,2.52 2.52,2.52 1.39,0 2.52,-1.13 2.52,-2.52 z"
         style="fill:none;stroke:#5b9bd5;stroke-width:0.68485308;stroke-linecap:butt;stroke-linejoin:round;stroke-miterlimit:10;stroke-dasharray:none;stroke-opacity:1"
         id="path5201"
         inkscape:connector-curvature="0" />
      <path
         d="m 301.56,629.16 c 0,-1.39 -1.13,-2.52 -2.52,-2.52 -1.39,0 -2.52,1.13 -2.52,2.52 0,1.39 1.13,2.52 2.52,2.52 1.39,0 2.52,-1.13 2.52,-2.52 z"
         style="fill:#5b9bd5;fill-opacity:1;fill-rule:nonzero;stroke:none;stroke-width:0.95118481"
         id="path5203"
         inkscape:connector-curvature="0" />
      <path
         d="m 301.56,629.16 c 0,-1.39 -1.13,-2.52 -2.52,-2.52 -1.39,0 -2.52,1.13 -2.52,2.52 0,1.39 1.13,2.52 2.52,2.52 1.39,0 2.52,-1.13 2.52,-2.52 z"
         style="fill:none;stroke:#5b9bd5;stroke-width:0.68485308;stroke-linecap:butt;stroke-linejoin:round;stroke-miterlimit:10;stroke-dasharray:none;stroke-opacity:1"
         id="path5205"
         inkscape:connector-curvature="0" />
      <path
         d="m 330.6,654.36 c 0,-1.39 -1.13,-2.52 -2.52,-2.52 -1.39,0 -2.52,1.13 -2.52,2.52 0,1.39 1.13,2.52 2.52,2.52 1.39,0 2.52,-1.13 2.52,-2.52 z"
         style="fill:#5b9bd5;fill-opacity:1;fill-rule:nonzero;stroke:none;stroke-width:0.95118481"
         id="path5207"
         inkscape:connector-curvature="0" />
      <path
         d="m 330.6,654.36 c 0,-1.39 -1.13,-2.52 -2.52,-2.52 -1.39,0 -2.52,1.13 -2.52,2.52 0,1.39 1.13,2.52 2.52,2.52 1.39,0 2.52,-1.13 2.52,-2.52 z"
         style="fill:none;stroke:#5b9bd5;stroke-width:0.68485308;stroke-linecap:butt;stroke-linejoin:round;stroke-miterlimit:10;stroke-dasharray:none;stroke-opacity:1"
         id="path5209"
         inkscape:connector-curvature="0" />
      <path
         d="m 359.64,664.08 c 0,-1.39 -1.13,-2.52 -2.52,-2.52 -1.39,0 -2.52,1.13 -2.52,2.52 0,1.39 1.13,2.52 2.52,2.52 1.39,0 2.52,-1.13 2.52,-2.52 z"
         style="fill:#5b9bd5;fill-opacity:1;fill-rule:nonzero;stroke:none;stroke-width:0.95118481"
         id="path5211"
         inkscape:connector-curvature="0" />
      <path
         d="m 359.64,664.08 c 0,-1.39 -1.13,-2.52 -2.52,-2.52 -1.39,0 -2.52,1.13 -2.52,2.52 0,1.39 1.13,2.52 2.52,2.52 1.39,0 2.52,-1.13 2.52,-2.52 z"
         style="fill:none;stroke:#5b9bd5;stroke-width:0.68485308;stroke-linecap:butt;stroke-linejoin:round;stroke-miterlimit:10;stroke-dasharray:none;stroke-opacity:1"
         id="path5213"
         inkscape:connector-curvature="0" />
      <path
         d="m 388.8,687.24 c 0,-1.39 -1.13,-2.52 -2.52,-2.52 -1.39,0 -2.52,1.13 -2.52,2.52 0,1.39 1.13,2.52 2.52,2.52 1.39,0 2.52,-1.13 2.52,-2.52 z"
         style="fill:#5b9bd5;fill-opacity:1;fill-rule:nonzero;stroke:none;stroke-width:0.95118481"
         id="path5215"
         inkscape:connector-curvature="0" />
      <path
         d="m 388.8,687.24 c 0,-1.39 -1.13,-2.52 -2.52,-2.52 -1.39,0 -2.52,1.13 -2.52,2.52 0,1.39 1.13,2.52 2.52,2.52 1.39,0 2.52,-1.13 2.52,-2.52 z"
         style="fill:none;stroke:#5b9bd5;stroke-width:0.68485308;stroke-linecap:butt;stroke-linejoin:round;stroke-miterlimit:10;stroke-dasharray:none;stroke-opacity:1"
         id="path5217"
         inkscape:connector-curvature="0" />
      <path
         d="m 417.84,717.36 c 0,-1.39 -1.13,-2.52 -2.52,-2.52 -1.39,0 -2.52,1.13 -2.52,2.52 0,1.39 1.13,2.52 2.52,2.52 1.39,0 2.52,-1.13 2.52,-2.52 z"
         style="fill:#5b9bd5;fill-opacity:1;fill-rule:nonzero;stroke:none;stroke-width:0.95118481"
         id="path5219"
         inkscape:connector-curvature="0" />
      <path
         d="m 417.84,717.36 c 0,-1.39 -1.13,-2.52 -2.52,-2.52 -1.39,0 -2.52,1.13 -2.52,2.52 0,1.39 1.13,2.52 2.52,2.52 1.39,0 2.52,-1.13 2.52,-2.52 z"
         style="fill:none;stroke:#5b9bd5;stroke-width:0.68485308;stroke-linecap:butt;stroke-linejoin:round;stroke-miterlimit:10;stroke-dasharray:none;stroke-opacity:1"
         id="path5221"
         inkscape:connector-curvature="0" />
      <g
         style="stroke-width:0.95118481"
         id="g5223">
        <path
           d="M 153.65,554.48 415.32,704.45"
           style="fill:none;stroke:#5b9bd5;stroke-width:1.42677724;stroke-linecap:round;stroke-linejoin:round;stroke-miterlimit:10;stroke-dasharray:0, 2.85355427;stroke-dashoffset:0;stroke-opacity:1"
           id="path5225"
           inkscape:connector-curvature="0" />
      </g>
      <g
         style="stroke-width:0.95118481"
         id="g5227">
        <g
           style="stroke-width:0.95118481"
           id="g5229"
           clip-path="url(#clipPath5233)">
          <text
             transform="matrix(1,0,0,-1,284.02,707.14)"
             style="font-variant:normal;font-weight:normal;font-size:9px;font-family:Calibri;-inkscape-font-specification:Calibri;writing-mode:lr-tb;fill:#595959;fill-opacity:1;fill-rule:nonzero;stroke:none;stroke-width:0.95118481"
             id="text5237">
            <tspan
               style="stroke-width:0.95118481"
               x="0 4.0770001 6.1110001 10.557 12.591 17.153999 21.716999 23.985001 28.548 33.111 37.674 41.516998"
               y="0"
               sodipodi:role="line"
               id="tspan5235">y = 12.168x</tspan>
          </text>
        </g>
      </g>
      <g
         style="stroke-width:0.95118481"
         id="g5239">
        <g
           style="stroke-width:0.95118481"
           id="g5241"
           clip-path="url(#clipPath5245)">
          <text
             transform="matrix(1,0,0,-1,327.7,707.14)"
             style="font-variant:normal;font-weight:normal;font-size:9px;font-family:Calibri;-inkscape-font-specification:Calibri;writing-mode:lr-tb;fill:#595959;fill-opacity:1;fill-rule:nonzero;stroke:none;stroke-width:0.95118481"
             id="text5249">
            <tspan
               style="stroke-width:0.95118481"
               x="0"
               y="0"
               id="tspan5247">-</tspan>
          </text>
        </g>
      </g>
      <g
         style="stroke-width:0.95118481"
         id="g5251">
        <g
           style="stroke-width:0.95118481"
           id="g5253"
           clip-path="url(#clipPath5257)">
          <text
             transform="matrix(1,0,0,-1,332.38,707.14)"
             style="font-variant:normal;font-weight:normal;font-size:9px;font-family:Calibri;-inkscape-font-specification:Calibri;writing-mode:lr-tb;fill:#595959;fill-opacity:1;fill-rule:nonzero;stroke:none;stroke-width:0.95118481"
             id="text5261">
            <tspan
               style="stroke-width:0.95118481"
               x="0 4.5630002 6.8309999 11.394 15.957 20.52"
               y="0"
               sodipodi:role="line"
               id="tspan5259">0.3414</tspan>
          </text>
        </g>
      </g>
      <g
         style="stroke-width:0.95118481"
         id="g5263">
        <g
           style="stroke-width:0.95118481"
           id="g5265"
           clip-path="url(#clipPath5269)">
          <text
             transform="matrix(1,0,0,-1,299.98,696.1)"
             style="font-variant:normal;font-weight:normal;font-size:9px;font-family:Calibri;-inkscape-font-specification:Calibri;writing-mode:lr-tb;fill:#595959;fill-opacity:1;fill-rule:nonzero;stroke:none;stroke-width:0.95118481"
             id="text5273">
            <tspan
               style="stroke-width:0.95118481"
               x="0 4.914 7.9380002 9.9720001 14.391 16.424999 20.988001 23.256001 27.819 32.382 36.945"
               y="0"
               sodipodi:role="line"
               id="tspan5271">R² = 0.9842</tspan>
          </text>
        </g>
      </g>
      <g
         style="stroke-width:0.95118481"
         id="g5275">
        <g
           style="stroke-width:0.95118481"
           id="g5277"
           clip-path="url(#clipPath5281)">
          <text
             transform="matrix(1,0,0,-1,111.7,544.61)"
             style="font-variant:normal;font-weight:normal;font-size:9px;font-family:Calibri;-inkscape-font-specification:Calibri;writing-mode:lr-tb;fill:#595959;fill-opacity:1;fill-rule:nonzero;stroke:none;stroke-width:0.95118481"
             id="text5285">
            <tspan
               style="stroke-width:0.95118481"
               x="0"
               y="0"
               id="tspan5283">0</tspan>
          </text>
        </g>
      </g>
      <g
         style="stroke-width:0.95118481"
         id="g5287">
        <g
           style="stroke-width:0.95118481"
           id="g5289"
           clip-path="url(#clipPath5293)">
          <text
             transform="matrix(1,0,0,-1,111.7,571.99)"
             style="font-variant:normal;font-weight:normal;font-size:9px;font-family:Calibri;-inkscape-font-specification:Calibri;writing-mode:lr-tb;fill:#595959;fill-opacity:1;fill-rule:nonzero;stroke:none;stroke-width:0.95118481"
             id="text5297">
            <tspan
               style="stroke-width:0.95118481"
               x="0"
               y="0"
               id="tspan5295">1</tspan>
          </text>
        </g>
      </g>
      <g
         style="stroke-width:0.95118481"
         id="g5299">
        <g
           style="stroke-width:0.95118481"
           id="g5301"
           clip-path="url(#clipPath5305)">
          <text
             transform="matrix(1,0,0,-1,111.7,599.38)"
             style="font-variant:normal;font-weight:normal;font-size:9px;font-family:Calibri;-inkscape-font-specification:Calibri;writing-mode:lr-tb;fill:#595959;fill-opacity:1;fill-rule:nonzero;stroke:none;stroke-width:0.95118481"
             id="text5309">
            <tspan
               style="stroke-width:0.95118481"
               x="0"
               y="0"
               id="tspan5307">2</tspan>
          </text>
        </g>
      </g>
      <g
         style="stroke-width:0.95118481"
         id="g5311">
        <g
           style="stroke-width:0.95118481"
           id="g5313"
           clip-path="url(#clipPath5317)">
          <text
             transform="matrix(1,0,0,-1,111.7,626.76)"
             style="font-variant:normal;font-weight:normal;font-size:9px;font-family:Calibri;-inkscape-font-specification:Calibri;writing-mode:lr-tb;fill:#595959;fill-opacity:1;fill-rule:nonzero;stroke:none;stroke-width:0.95118481"
             id="text5321">
            <tspan
               style="stroke-width:0.95118481"
               x="0"
               y="0"
               id="tspan5319">3</tspan>
          </text>
        </g>
      </g>
      <g
         style="stroke-width:0.95118481"
         id="g5323">
        <g
           style="stroke-width:0.95118481"
           id="g5325"
           clip-path="url(#clipPath5329)">
          <text
             transform="matrix(1,0,0,-1,111.7,654.17)"
             style="font-variant:normal;font-weight:normal;font-size:9px;font-family:Calibri;-inkscape-font-specification:Calibri;writing-mode:lr-tb;fill:#595959;fill-opacity:1;fill-rule:nonzero;stroke:none;stroke-width:0.95118481"
             id="text5333">
            <tspan
               style="stroke-width:0.95118481"
               x="0"
               y="0"
               id="tspan5331">4</tspan>
          </text>
        </g>
      </g>
      <g
         style="stroke-width:0.95118481"
         id="g5335">
        <g
           style="stroke-width:0.95118481"
           id="g5337"
           clip-path="url(#clipPath5341)">
          <text
             transform="matrix(1,0,0,-1,111.7,681.55)"
             style="font-variant:normal;font-weight:normal;font-size:9px;font-family:Calibri;-inkscape-font-specification:Calibri;writing-mode:lr-tb;fill:#595959;fill-opacity:1;fill-rule:nonzero;stroke:none;stroke-width:0.95118481"
             id="text5345">
            <tspan
               style="stroke-width:0.95118481"
               x="0"
               y="0"
               id="tspan5343">5</tspan>
          </text>
        </g>
      </g>
      <g
         style="stroke-width:0.95118481"
         id="g5347">
        <g
           style="stroke-width:0.95118481"
           id="g5349"
           clip-path="url(#clipPath5353)">
          <text
             transform="matrix(1,0,0,-1,111.7,708.94)"
             style="font-variant:normal;font-weight:normal;font-size:9px;font-family:Calibri;-inkscape-font-specification:Calibri;writing-mode:lr-tb;fill:#595959;fill-opacity:1;fill-rule:nonzero;stroke:none;stroke-width:0.95118481"
             id="text5357">
            <tspan
               style="stroke-width:0.95118481"
               x="0"
               y="0"
               id="tspan5355">6</tspan>
          </text>
        </g>
      </g>
      <g
         style="stroke-width:0.95118481"
         id="g5359">
        <g
           style="stroke-width:0.95118481"
           id="g5361"
           clip-path="url(#clipPath5365)">
          <text
             transform="matrix(1,0,0,-1,111.7,736.34)"
             style="font-variant:normal;font-weight:normal;font-size:9px;font-family:Calibri;-inkscape-font-specification:Calibri;writing-mode:lr-tb;fill:#595959;fill-opacity:1;fill-rule:nonzero;stroke:none;stroke-width:0.95118481"
             id="text5369">
            <tspan
               style="stroke-width:0.95118481"
               x="0"
               y="0"
               id="tspan5367">7</tspan>
          </text>
        </g>
      </g>
      <g
         style="stroke-width:0.95118481"
         id="g5371">
        <g
           style="stroke-width:0.95118481"
           id="g5373"
           clip-path="url(#clipPath5377)">
          <text
             transform="matrix(1,0,0,-1,122.33,532.9)"
             style="font-variant:normal;font-weight:normal;font-size:9px;font-family:Calibri;-inkscape-font-specification:Calibri;writing-mode:lr-tb;fill:#595959;fill-opacity:1;fill-rule:nonzero;stroke:none;stroke-width:0.95118481"
             id="text5381">
            <tspan
               style="stroke-width:0.95118481"
               x="0"
               y="0"
               id="tspan5379">0</tspan>
          </text>
        </g>
      </g>
      <g
         style="stroke-width:0.95118481"
         id="g5383">
        <g
           style="stroke-width:0.95118481"
           id="g5385"
           clip-path="url(#clipPath5389)">
          <text
             transform="matrix(1,0,0,-1,177.07,532.9)"
             style="font-variant:normal;font-weight:normal;font-size:9px;font-family:Calibri;-inkscape-font-specification:Calibri;writing-mode:lr-tb;fill:#595959;fill-opacity:1;fill-rule:nonzero;stroke:none;stroke-width:0.95118481"
             id="text5393">
            <tspan
               style="stroke-width:0.95118481"
               x="0 4.5630002 6.8309999"
               y="0"
               sodipodi:role="line"
               id="tspan5391">0.1</tspan>
          </text>
        </g>
      </g>
      <g
         style="stroke-width:0.95118481"
         id="g5395">
        <g
           style="stroke-width:0.95118481"
           id="g5397"
           clip-path="url(#clipPath5401)">
          <text
             transform="matrix(1,0,0,-1,235.22,532.9)"
             style="font-variant:normal;font-weight:normal;font-size:9px;font-family:Calibri;-inkscape-font-specification:Calibri;writing-mode:lr-tb;fill:#595959;fill-opacity:1;fill-rule:nonzero;stroke:none;stroke-width:0.95118481"
             id="text5405">
            <tspan
               style="stroke-width:0.95118481"
               x="0 4.5630002 6.8309999"
               y="0"
               sodipodi:role="line"
               id="tspan5403">0.2</tspan>
          </text>
        </g>
      </g>
      <g
         style="stroke-width:0.95118481"
         id="g5407">
        <g
           style="stroke-width:0.95118481"
           id="g5409"
           clip-path="url(#clipPath5413)">
          <text
             transform="matrix(1,0,0,-1,293.38,532.9)"
             style="font-variant:normal;font-weight:normal;font-size:9px;font-family:Calibri;-inkscape-font-specification:Calibri;writing-mode:lr-tb;fill:#595959;fill-opacity:1;fill-rule:nonzero;stroke:none;stroke-width:0.95118481"
             id="text5417">
            <tspan
               style="stroke-width:0.95118481"
               x="0 4.5630002 6.8309999"
               y="0"
               sodipodi:role="line"
               id="tspan5415">0.3</tspan>
          </text>
        </g>
      </g>
      <g
         style="stroke-width:0.95118481"
         id="g5419">
        <g
           style="stroke-width:0.95118481"
           id="g5421"
           clip-path="url(#clipPath5425)">
          <text
             transform="matrix(1,0,0,-1,351.55,532.9)"
             style="font-variant:normal;font-weight:normal;font-size:9px;font-family:Calibri;-inkscape-font-specification:Calibri;writing-mode:lr-tb;fill:#595959;fill-opacity:1;fill-rule:nonzero;stroke:none;stroke-width:0.95118481"
             id="text5429">
            <tspan
               style="stroke-width:0.95118481"
               x="0 4.5630002 6.8309999"
               y="0"
               sodipodi:role="line"
               id="tspan5427">0.4</tspan>
          </text>
        </g>
      </g>
      <g
         style="stroke-width:0.95118481"
         id="g5431">
        <g
           style="stroke-width:0.95118481"
           id="g5433"
           clip-path="url(#clipPath5437)">
          <text
             transform="matrix(1,0,0,-1,409.7,532.9)"
             style="font-variant:normal;font-weight:normal;font-size:9px;font-family:Calibri;-inkscape-font-specification:Calibri;writing-mode:lr-tb;fill:#595959;fill-opacity:1;fill-rule:nonzero;stroke:none;stroke-width:0.95118481"
             id="text5441">
            <tspan
               style="stroke-width:0.95118481"
               x="0 4.5630002 6.8309999"
               y="0"
               sodipodi:role="line"
               id="tspan5439">0.5</tspan>
          </text>
        </g>
      </g>
      <g
         style="stroke-width:0.95118481"
         id="g5443">
        <g
           style="stroke-width:0.95118481"
           id="g5445"
           clip-path="url(#clipPath5449)">
          <text
             transform="matrix(1,0,0,-1,467.86,532.9)"
             style="font-variant:normal;font-weight:normal;font-size:9px;font-family:Calibri;-inkscape-font-specification:Calibri;writing-mode:lr-tb;fill:#595959;fill-opacity:1;fill-rule:nonzero;stroke:none;stroke-width:0.95118481"
             id="text5453">
            <tspan
               style="stroke-width:0.95118481"
               x="0 4.5630002 6.8309999"
               y="0"
               sodipodi:role="line"
               id="tspan5451">0.6</tspan>
          </text>
        </g>
      </g>
      <g
         style="stroke-width:0.95118481"
         id="g5455">
        <g
           style="stroke-width:0.95118481"
           id="g5457"
           clip-path="url(#clipPath5461)">
          <text
             transform="matrix(-4.4e-8,1,1,4.4e-8,97.992,665.62)"
             style="font-variant:normal;font-weight:normal;font-size:9.96000004px;font-family:Calibri;-inkscape-font-specification:Calibri;writing-mode:lr-tb;fill:#595959;fill-opacity:1;fill-rule:nonzero;stroke:none;stroke-width:0.95118481"
             id="text5465">
            <tspan
               style="stroke-width:0.95118481"
               x="0 2.2908001 7.5496802 10.56756"
               y="0"
               sodipodi:role="line"
               id="tspan5463">ln(1</tspan>
          </text>
        </g>
      </g>
      <g
         style="stroke-width:0.95118481"
         id="g5467">
        <g
           style="stroke-width:0.95118481"
           id="g5469"
           clip-path="url(#clipPath5473)">
          <text
             transform="matrix(-4.4e-8,1,1,4.4e-8,97.992,681.22)"
             style="font-variant:normal;font-weight:normal;font-size:9.96000004px;font-family:Calibri;-inkscape-font-specification:Calibri;writing-mode:lr-tb;fill:#595959;fill-opacity:1;fill-rule:nonzero;stroke:none;stroke-width:0.95118481"
             id="text5477">
            <tspan
               style="stroke-width:0.95118481"
               x="0"
               y="0"
               id="tspan5475">-</tspan>
          </text>
        </g>
      </g>
      <g
         style="stroke-width:0.95118481"
         id="g5479">
        <g
           style="stroke-width:0.95118481"
           id="g5481"
           clip-path="url(#clipPath5485)">
          <text
             transform="matrix(-4.4e-8,1,1,4.4e-8,97.992,684.22)"
             style="font-variant:normal;font-weight:normal;font-size:9.96000004px;font-family:Calibri;-inkscape-font-specification:Calibri;writing-mode:lr-tb;fill:#595959;fill-opacity:1;fill-rule:nonzero;stroke:none;stroke-width:0.95118481"
             id="text5489">
            <tspan
               style="stroke-width:0.95118481"
               x="0 4.2130799 9.4719601 12.46992"
               y="0"
               sodipodi:role="line"
               id="tspan5487">cdf)</tspan>
          </text>
        </g>
      </g>
      <g
         style="stroke-width:0.95118481"
         id="g5491">
        <g
           style="stroke-width:0.95118481"
           id="g5493"
           clip-path="url(#clipPath5497)">
          <text
             transform="matrix(1,0,0,-1,289.1,517.94)"
             style="font-variant:normal;font-weight:normal;font-size:9.96000004px;font-family:Calibri;-inkscape-font-specification:Calibri;writing-mode:lr-tb;fill:#595959;fill-opacity:1;fill-rule:nonzero;stroke:none;stroke-width:0.95118481"
             id="text5501">
            <tspan
               style="stroke-width:0.95118481"
               x="0 5.2688398 10.06956 14.9898"
               y="0"
               sodipodi:role="line"
               id="tspan5499">dT&lt;T</tspan>
          </text>
        </g>
      </g>
      <g
         style="stroke-width:0.95118481"
         id="g5503">
        <g
           style="stroke-width:0.95118481"
           id="g5505"
           clip-path="url(#clipPath5509)">
          <path
             d="M 72,512.07 H 486.95 V 769.92 H 72 Z"
             style="fill:none;stroke:#d9d9d9;stroke-width:0.71338862;stroke-linecap:butt;stroke-linejoin:round;stroke-miterlimit:10;stroke-dasharray:none;stroke-opacity:1"
             id="path5511"
             inkscape:connector-curvature="0" />
        </g>
      </g>
    </g>
  </g>
</svg>
